<svg fill="#fff" xmlns="http://www.w3.org/2000/svg" viewBox="0 0 32 32">
    <g id="Layer1">
        <path
            d="M30,7.991c0,-1.652 -1.339,-2.991 -2.991,-2.991l-22.018,0c-1.652,0 -2.991,1.339 -2.991,2.991c0,3.271 0,9.747 0,13.018c-0,1.652 1.339,2.991 2.991,2.991l6.676,-0c-0,0 3.733,2.8 3.733,2.8c0.356,0.267 0.844,0.267 1.2,-0l3.733,-2.8l6.676,-0c1.652,-0 2.991,-1.339 2.991,-2.991l0,-13.018Zm-19.4,9.009l10.8,0c0.552,-0 1,-0.448 1,-1c-0,-0.552 -0.448,-1 -1,-1l-10.8,0c-0.552,-0 -1,0.448 -1,1c-0,0.552 0.448,1 1,1Zm-3.6,-4l18,0c0.552,-0 1,-0.448 1,-1c-0,-0.552 -0.448,-1 -1,-1l-18,0c-0.552,-0 -1,0.448 -1,1c-0,0.552 0.448,1 1,1Z"
        />
    </g>
</svg>